<?xml version="1.0" encoding="utf-8"?>
<!-- Generator: Adobe Illustrator 19.1.0, SVG Export Plug-In . SVG Version: 6.00 Build 0)  -->
<svg version="1.1" id="Layer_2" xmlns="http://www.w3.org/2000/svg" xmlns:xlink="http://www.w3.org/1999/xlink" x="0px" y="0px"
	 viewBox="0 0 344.1 536.4" style="enable-background:new 0 0 344.1 536.4;" xml:space="preserve">
<style type="text/css">
	.Drop_x0020_Shadow{fill:none;}
	.Round_x0020_Corners_x0020_2_x0020_pt{fill:#FFFFFF;stroke:#231F20;stroke-miterlimit:10;}
	.Live_x0020_Reflect_x0020_X{fill:none;}
	.Bevel_x0020_Soft{fill:url(#SVGID_1_);}
	.Dusk{fill:#FFFFFF;}
	.Foliage_GS{fill:#FFDD00;}
	.Pompadour_GS{fill-rule:evenodd;clip-rule:evenodd;fill:#44ADE2;}
	.Graphic_x0020_Style{fill:none;stroke:#231F20;stroke-width:0.5;stroke-miterlimit:10;}
	.st0{fill:none;stroke:#6E7F08;stroke-width:1.5;stroke-miterlimit:10;}
</style>
<linearGradient id="SVGID_1_" gradientUnits="userSpaceOnUse" x1="-59.1329" y1="66.6938" x2="-58.4258" y2="67.4009">
	<stop  offset="0" style="stop-color:#DEDFE3"/>
	<stop  offset="0.1783" style="stop-color:#DADBDF"/>
	<stop  offset="0.3611" style="stop-color:#CECFD3"/>
	<stop  offset="0.546" style="stop-color:#B9BCBF"/>
	<stop  offset="0.7324" style="stop-color:#9CA0A2"/>
	<stop  offset="0.9181" style="stop-color:#787D7E"/>
	<stop  offset="1" style="stop-color:#656B6C"/>
</linearGradient>
<path class="st0" d="M165.6,461.6c-3.8-6.4-11.8-8.8-19.3-9.6c-6.3-0.6-12.7-0.4-18.9,0.7c3.4,1.3,5.1,5.1,7.6,7.9
	c3.1,3.5,7.7,5.5,12.4,5.4s9.2-2.4,12.1-6.1"/>
<path class="st0" d="M134.7,452.8c0.5,3.2,1.4,5.1,2.6,6.8c2.1,2.9,4.9,3.1,7.2,2c2.3-1,2.3-5.9,2.1-8.4"/>
<path class="st0" d="M200.9,461.7c-0.2-5,3.3-9.6,7.7-12.1s9.5-3.2,14.5-3.9c2.7-0.4,5.4-0.7,8.2-1.1c-4.1,2.8-4,9.2-7.3,12.9
	c-3.3,3.6-9,3.6-13.9,3.3c-1.9-0.1-3.9-0.3-5.3-1.4"/>
<path class="st0" d="M205.5,453.2c-0.4,3.1,3.4,6.6,6.4,5.6c3-1.1,4.8-5.5,5.2-8.6"/>
<path class="st0" d="M158.4,448.1c2.2,1,4.2,2.4,6,4.1"/>
<path class="st0" d="M124.9,431.7c3.4,3.5,8.6,4.6,13.4,4.8c4.9,0.2,9.8-0.3,14.6,0.7c4.3,0.9,8.3,3,11.4,6.1
	c-0.2-2.7-2.1-5-4.3-6.7c-4-3-9.2-4.8-14.1-4.3c-5.3,0.6-9.8,2-15,2.3"/>
<path class="st0" d="M230.7,426c-4.5,4.6-11.3,5.6-17.6,6.6s-13.2,2.7-16.9,8c-0.8-1.4-0.2-3.2,0.8-4.5c6.6-9.5,18.8-5.9,28.8-6.9"
	/>
<path class="st0" d="M198.9,446.4c-3.8,4.9-6.3,10.8-7.1,16.9c-0.4,2.9-0.4,5.9,0.7,8.6c1.4,3.4,4.6,6.3,4.7,10
	c0.2,3.8-3.9,6.4-6.3,8.8c2.2-1.5,3.5-1.8,5.5-2"/>
<path class="st0" d="M182.9,490.7c-1.8-1.2-2.7-1.4-4.5-1.5"/>
<path class="st0" d="M182.4,504.1c3.2,0.5,6.5,0.2,9.5-0.8"/>
<path class="st0" d="M182.3,505.1c-2.8,1.7-8.3,2.1-11.6,2"/>
<path class="st0" d="M190.8,504c3.8,1.1,7.8,1.2,11.6,0.2"/>
<path class="st0" d="M184.1,513.1c2.5,0.6,5.6,0,7.3-0.9"/>
<path class="st0" d="M129.4,452.2"/>
<path class="st0" d="M131.2,451.9c-3.5,2-9.4,3.8-13,4c3.8,1.8,10.2,0.1,14.5-1.3c-1.1,0.6-3.4,3.6-4.5,4.3
	c3.7-0.3,10.1-4.7,13.2-6.8"/>
<path class="st0" d="M145.8,453.1c-1.1,0.9-2.2,1.8-3.3,2.7"/>
<path class="st0" d="M227.1,445.4c3.9,0.5,6,1,11.8,0c-4.8,2-12.4,4-17.4,2.7c0.5,1,1.3,1.9,2.4,2.4c-3.7,0.4-8-0.6-10.7-2.6"/>
<path class="st0" d="M209.4,449.7c0.2,1.4,2.7,2.4,4,2.8"/>
<path class="st0" d="M123.9,458.8c2,14,7,32.5,16.8,43.3c8.7,9.6,20.3,18.6,31.5,25.3c6.6,3.9,15,11.5,23.2,5.7
	c29.5-20.9,44.7-55.2,43.5-85.4"/>
<path class="st0" d="M160.5,123.2c8.7,6.6,8.5,20.1,3.7,29.9c-4.8,9.8-13.1,17.5-18.7,26.8s-8.2,22.1-1.4,30.7
	c2.5,3.2,6.1,5.4,9.7,7.3c8.4,4.5,17.5,7.7,25.3,13.1s14.5,13.6,15,23c0.4,8.8-4.5,17-11,23c-6.4,6-14.3,10.1-21.7,14.8
	c-11.4,7.3-21.8,16-31,25.9c-10.8,11.7-20.4,27.7-15.4,42.9c4.3,13.2,18.2,20.9,31.7,24.5c13.5,3.6,27.8,4.6,40.3,10.8"/>
<path class="st0" d="M186.1,393.7c-10.2-12.9-28.2-15.9-43.1-22.8c-8.2-3.8-16.7-10.5-16.7-19.6c0-6.1,4.1-11.5,9.1-14.9
	c5-3.4,10.9-5.1,16.8-6.8c33-9.8,65.9-22,93.1-43c9.4-7.3,18.7-16.7,19.6-28.6c0.9-11-5.9-21.5-14.7-28.1
	c-8.8-6.6-19.6-10-30.1-13.3c-14.8-4.6-28.4-6.1-43.2-10.7c-5.8-1.8-20.9-9-21.5-15c-0.3-2.7,1.1-7.7,2.5-10
	c6.8-11.3,26.4-14.8,33.2-26.1c1.7-2.8,3-6,2.5-9.2c-0.5-3.1-2.7-5.7-5-7.9c-6.7-6.3-20.3-12-28.7-15.8"/>
<path class="st0" d="M214.9,308c-9,11.5-23.6,17.6-32.4,29.2c-10.1,13.3-10.5,33.2-1,46.9"/>
<path class="st0" d="M191.1,318.3c-10.4,7.2-17.5,18.9-19.2,31.4c-1.7,12.5,2.1,25.7,10.2,35.3"/>
<path class="st0" d="M156.7,328.6c-7,7.5-7.5,19.6-3.1,28.9s13,16,22.2,20.6"/>
<path class="st0" d="M158.4,293.4c11.6-7,20.3-19.1,21.7-32.6c1.3-13.5-4.5-31.8-16.7-37.6"/>
<path class="st0" d="M177.4,167.7c-7,15-6.9,31.1,1.6,38.6"/>
<path class="st0" d="M182.9,164.3c-8.2,13.1-3.1,34.6,8.5,44.8"/>
<path class="st0" d="M186,161.2c-4,10.6-5.2,23.5,0.6,33.3c5,8.5,8.8,13.1,19.2,17.7"/>
<path class="st0" d="M186.9,389.6c0-8.2,6-15,12.3-20.2c16.6-13.7,37.1-22.3,52.4-37.4c4.7-4.6,8.9-9.9,10.6-16.2
	c3.1-11.4-3.8-24.6-14.9-28.6"/>
<path class="st0" d="M221.9,216.2c-19-14.5-21.6-30.6-14.1-44.4c5.5-10.2,15.4-17.1,24.4-24.6c8.9-7.4,17.7-16.5,19.3-28
	c1.9-13.9-7.2-27-18.1-35.8c-11.4-9.2-25-15.2-38.8-19.7c-10.6-3.4-31.4-3.5-31.3-18.5c0.1-4.4,1.9-8.6,4.2-12.3
	c7.9-12.9,21.8-21.2,36.3-25.3c5.6-1.6,9.1-2,14.6-2"/>
<path class="st0" d="M218.9,5.7c-37.5-8-45.9-4.8-61,9.5c-5.5,5.2-5.1,18.2-4.1,25.7c0.5,3.8,2.2,7.5,4.5,10.5
	c5.2,7,12.2,8.4,19.5,11.9c8.3,3.9,16.5,10,23.1,16.2c14.4,13.5,22.9,33.9,11.6,52.2c-5.7,9.2-10.6,12-18.1,14"/>
<path class="st0" d="M165.9,146.7c-29.5,0-56.2,19.3-66.2,45c-5.3,13.7-4.2,30.4,5.3,41.5c5.3,6.2,21.2,17.1,28.4,21
	c18.3,9.9,24.5,12,42.5,20"/>
<path class="st0" d="M143.3,182c-6.8,10.6-13,22.3-12.5,34.9c0.4,10.9,6,21.1,13.4,29.2c7.4,8,24.6,18.5,33.7,24.6"/>
<path class="st0" d="M221.9,302.2c4.8,2.6,8.4,11.3,7.2,16.7c-1.2,5.4-4.8,9.8-8.6,13.8c-6.8,6.9-14.7,12.7-21.8,19.4
	C186.4,363.8,178,379,185,396"/>
<path class="st0" d="M185.2,390.8c0.6-4.4,3-8.5,6.6-11c5.7-4.1,14.9-3.9,21.5-6.6c8.6-3.5,17.2-6.7,25.8-10.4
	c18.1-7.7,36-17.8,47.2-33.9c2.9-4.1,5.4-9,4.9-14c-0.6-5.6-6.3-14.2-10.6-17.9c-9.3-8-17.9-10.9-29.7-14.2"/>
<path class="st0" d="M187.2,395.3c-3.2-15.1,23.1-17.5,33-17.8c9.3-0.3,19.1,2.5,25.3,9.4c8.3,9.3,8.7,23.9,17.4,32.8
	c8.2,8.4,22,9.2,32.8,4.7c10.8-4.6,19.2-13.5,26.3-22.9c13.2-17.3,23.8-38.6,20.1-60c-2.8-16.3-13.6-30.1-25.2-41.9
	c-9.4-9.6-20.5-20.9-18.2-34.1c1-5.5,4.3-10.3,7.7-14.7c9.4-11.7,23.1-20.1,31.9-31.9c3.2-4.3,5.1-9.9,4.3-15.2
	c-0.6-3.8-2.5-7.2-4.7-10.4c-10.1-14.1-28.4-21.9-45.6-19.3"/>
<path class="st0" d="M292.9,174.2c17.6,5.6,32.8,22.3,30.7,40.6c-2.3,19.3-20.7,31.9-32.8,47.1c-7.2,9-12.5,19.6-15.3,30.7"/>
<path class="st0" d="M279.4,340.5c12,3,24.2,12.1,30.5,22.8c5.6,9.4,8.4,20.8,6,31.4c-2.4,10.7-10.5,20.3-21.2,22.7
	c-3.7,0.9-7.8,0.8-11.3-0.6c-9.1-3.7-12.2-14.8-16.4-23.7c-6.9-14.3-21.9-24.6-38.5-25.8"/>
<path class="st0" d="M186.1,397.5c0.2-1.6,2.6-1.5,4.1-0.8c11.4,5.4,19.8,16.1,31.7,20.5c10.9,4.1,25.1,0.5,34.1-6.9"/>
<path class="st0" d="M187.6,393.3c7.8-1.5,15.7,0.9,22.9,4.2c7.2,3.3,14,7.5,21.5,10s16.1,3,23-0.9"/>
<path class="st0" d="M188.9,393.4c11.2-4.1,22.9-3.7,34,0.1c8.8,3.1,17.9,6.6,27.2,5.4"/>
<path class="st0" d="M186.7,395.4c2.7-4.8,10.6-8.9,16-9.7c5.4-0.8,12.7,0.5,18.1,1.3c8.4,1.3,16.7,2.7,25.1,4"/>
<path class="st0" d="M268,392c-0.7,0.9,20.1,2.5,28-3.8c8-6.3,13.4-17.2,11.5-27.2"/>
<path class="st0" d="M268.1,396.7"/>
<path class="st0" d="M268.6,398c11.5,5.2,24.3,2.7,34.3-4.9c5.1-3.9,9.6-18.2,8.6-24.6"/>
<path class="st0" d="M264.9,386.6c6.1,2.3,15.6,0.7,21.4-2c6-2.8,9.3-7,13.3-12.3c4-5.3,5.5-13,2.1-18.7"/>
<path class="st0" d="M272,405.7c2.1,3.7,9.5,3.7,13.7,3.4c7.9-0.6,11.9-1.6,18.3-6.3c6.4-4.7,11.8-12.7,12-20.6"/>
<path class="st0" d="M261.7,383.9c13.2-3.7,29.5-12,27.1-28.6c-0.8-5.3-3.6-10.1-6.9-14.5"/>
<path class="st0" d="M253.1,376.7c9.8-1.4,21.9-5.6,26.3-14.5c4.5-8.9,4-14.9-2.3-22.9"/>
<path class="st0" d="M233.9,221.7c-3.5-7.2-2.5-15.8,2.1-22.3c4.6-6.5,13.8-10.2,21.4-12.7"/>
<path class="st0" d="M256.9,186.7c-7.8,4.9-13.8,14.9-12,24c1.5,7.6,5,13.1,11.3,17.6c13.1,9.5,27.2,14.4,40.2,24.4"/>
<path class="st0" d="M303.4,257.7c4.5,1.5,11.1,4.8,15,8.5c6.9,6.7,10.9,12.8,15,21.5c2.5,5.3,4.3,14.7,4.3,20.6
	c0,5.9-0.8,7.9-3.8,12.9"/>
<path class="st0" d="M222.2,418.9c9.5,4.6,14.4,16.6,18.7,26.2c4.4,9.6,9.2,20,18.6,25c7.4,3.9,18.3,4,24.8-1.9
	c1.9-1.8,3.1-4.3,3.9-6.8c3.5-10.6,1.9-22.7-4.1-32.2"/>
<path class="st0" d="M234.1,418.2c6,2.3,9.9,8.2,12.5,14.1c2.7,5.9,4.7,12.2,8.7,17.2c4.1,5,11.1,8.4,17,5.9
	c5.4-2.2,8.1-8.5,7.9-14.4c-0.2-5.8-2.4-8.3-4.9-13.6"/>
<path class="st0" d="M239.9,444.6c5.5,10.4,2.6,27.5,5.6,38.8c3.7,13.8,18.6,23.2,32.8,22.1c14.3-1.1,27-11.3,32.8-24.4
	c2.3-5.1,3.6-10.7,3.1-16.2c-0.5-5.6-2.7-10.9-5.3-15.9c-4.5-8.7-10-16.9-16.5-24.3"/>
<path class="st0" d="M166.7,390.4c-7.7-2.8-16.5,1.2-22,7.3c-5.6,6-8.8,13.8-12.9,20.9c-4.6,8.1-10.3,15.5-17,22
	c-4.5,4.4-10,8.6-16.3,8.5c-6.4-0.1-12.1-5-14.7-10.9c-2.6-5.9-2.7-12.6-1.9-19c2.7-22.9,14.6-41.7,33.5-55"/>
<path class="st0" d="M136.7,311.8c3.1-3.4,5.7-7.3,6.8-11.8s0.5-9.5-2.4-13c-4.1-5-11.4-6-17.9-5.5c-6.7,0.4-13.2,1.9-19.8,2.7
	c-6.6,0.8-13.5,0.9-19.8-1.1c-6.3-2.1-12.1-6.7-14.2-13c-2.1-6.3,0.3-14.2,6.2-17.3"/>
<path class="st0" d="M76.4,253c-4.5,3.2-6,6.2-5.5,11.2c0.5,4.9,6.7,8.4,11.5,9.5c4.8,1.1,9.9,0.7,14.8,0.5
	c11.3-0.4,22.7,0.4,33.3,4.3c10.5,4,17.6,6.9,22.4,17.1"/>
<path class="st0" d="M123.9,376.2c-2,3.2-6.4,6.4-9.5,8.5c-6.2,4.4-12.3,9.3-16.1,15.9s-4.9,15.2-1,21.7c1,1.8,2.6,3.4,4.7,3.6
	c3,0.2,5.1-2.9,6.2-5.8c2.9-7.4,3.9-15.4,6.6-22.8c2.7-7.4,7.7-14.8,15.3-17"/>
<path class="st0" d="M147.4,394.7c-2.2-4.4-9.6-8.8-14.5-8c-3.6,0.6-7,2.7-10,4.8c-7.6,5.2-4.4,8.8-11,15.2"/>
<path class="st0" d="M145.9,395.7c-6.8-1.8-17,0.3-22.7,4.3c-5.8,4-6.3,5.4-12.3,9.2"/>
<path class="st0" d="M139.6,404.8c-4.2-1.8-8.7,2-11.6,5.6c-4.8,6.1-8.9,12.6-14.2,18.2s-12,10.3-19.6,11.3
	c-2.5,0.3-5.3,0.2-7.4-1.2c-2.1-1.4-3.3-3.8-3.7-6.2c-0.8-4.6,0.9-9.4,3.7-13.2s4.3-4.1,8.2-6.6"/>
<path class="st0" d="M228.1,423.3c8.7,5.4,13.9,14.7,19.7,23.1c5.8,8.4,13.5,16.7,23.7,18c2.4,0.3,4.9,0.2,7.1-0.8
	c4.1-1.9,6.4-6.5,7.1-11c1.3-7.9-2.2-18.8-6.2-25.7"/>
<path class="st0" d="M243.8,427.4c8.9,2.9,16.7,2.3,22.5-5.6"/>
<path class="st0" d="M245.5,431.3c8.6,3.3,16.3-2.3,22.2-7.6"/>
<path class="st0" d="M273,427.3c-5.3,7.1-13.9,11.6-22.8,11.7"/>
<path class="st0" d="M233.7,481.8c2.9-1.1,6.6-2.6,9.7-3.3"/>
<path class="st0" d="M256,450.4c11.2-1.1,19.8-11.8,18.1-22.9"/>
<path class="st0" d="M243.4,453.8c-2.3,1.9-2.9,2.2-5.1,4.4"/>
<path class="st0" d="M289.7,427.5c9.4,10.3,13.9,27.3,11.2,41c-2.6,13.7-10.3,26-19.8,36.3"/>
<path class="st0" d="M296.4,256.2c-6,10-6.7,20.7-3.5,31.5c3.2,10.8,8.4,18,15.5,26.7c7.2,8.7,14.9,17.2,20.1,27.2
	c6.7,12.7,9.4,23.6,7,37.8"/>
<path class="st0" d="M184.9,208.7c16.5,8.1,26.8,27.3,24.3,45.6c-1.9,13.9-10.2,26-19.7,36.2c-11.5,12.3-25,22.5-39.9,30.3
	c-7.9,4.1-16.3,7.6-23.6,12.8s-13.5,12.7-14.9,21.5"/>
<path class="st0" d="M196.9,211.7c32,26,28.4,56,17,73.5c-10.9,16.8-33.1,26.1-51.3,34.6c-11.3,5.3-23.5,9.5-32.8,17.8
	c-11.4,10.1-11.8,21.4-9.4,33.6"/>
<path class="st0" d="M124.9,430.7c2.5,17.5-6.2,43.4-28.5,44.9c-6.9,0.5-13.7-3.6-17.7-9.2c-4-5.7-5.7-12.7-6-19.7
	c-1.1-20.1,7.8-39.3,17.9-56.6s21.9-34.1,27.8-53.3c5.8-19.2,7.6-39.6-4.4-54.6"/>
<path class="st0" d="M108.9,273.7c-8.5-13.5-27.5-19.9-34.2-33.8c-5-10.5-5-22.3,0.2-32.7c3-6,7-11,12.8-14.5"/>
<path class="st0" d="M86.9,194.2c-9.3,8.9-14.9,29.8-6.4,41.7c10.3,14.5,31.6,15.4,46.7,24.7c9.1,5.6,16.3,14.3,20,24.4"/>
<path class="st0" d="M112,254.4c9.6,6.2,15.8,12.7,18.3,23.8"/>
<path class="st0" d="M131.4,281.7c5.8,12.5,2.6,31.5-7.6,40.7"/>
<path class="st0" d="M72.8,436.8c-8.5-8.1-8.9-18.7-2-27.6c13.1-16.8,30.2-31.9,34.9-52.7c4.4-19-17.1-39-33-50.4
	c-21.3-15.2-78.8-8.8-70.9,27.3c3.1-8.2,10-14.4,17.7-18.4c17.4-9,43-14.9,59,0.2c13.6,12.8,0.4,34.4-4.2,48.5
	c-6.2,19-13.5,37.8-15.8,57.6c-2.3,19.8,0.9,41.3,13.7,56.6c12.8,15.3,40.7,21.4,57.7,10.9"/>
<path class="st0" d="M127.1,481.7c-2.9,4.7-5.6,7.6-10.8,9.4c-6.2,2.1-14,1.3-19.4-2.4c-7.6-5.2-13.7-12.5-17.3-21"/>
<path class="st0" d="M127.1,479.6c-7.6,12.3-30.8,10.5-34-4.5"/>
<path class="st0" d="M127.3,475.6c-1.5,2.8-5,5.3-8.4,5.6c-8.7,0.8-11.5-1.5-15.8-6.8"/>
<path class="st0" d="M100.4,333.7c-0.2-9.2,1.8-17.6,6.5-25.5c2.8-4.6,8-11,13-13.5"/>
<path class="st0" d="M143.9,276.7c6.1-1.2,8.1-6.5,9.5-12.5"/>
<path class="st0" d="M158.9,266.7c-1.2,5.9-5.9,11.5-13.5,14"/>
<path class="st0" d="M168.4,271.2c-5.2,5.7-14.1,13.8-21.6,15.6"/>
<path class="st0" d="M121.8,304.1c-11.6,6.2-19.1,19.5-18.2,32.7"/>
<path class="st0" d="M122.5,447c-2.9,3.7-8.7,9.4-13.2,8s-8.4-2.1-11.4-5.7"/>
<path class="st0" d="M237.1,470c1.5-4.4,3.6-7.9,6.5-11.5"/>
<path class="st0" d="M235.7,476.1c0.7-3.5,3.2-6.6,6.5-7.9"/>
<path class="st0" d="M124.9,472.6c-3.1-3.3-5.7-5.3-7.5-9.5"/>
<path class="st0" d="M124.2,467c-2.4-4.4-4-9.3-4.7-14.3"/>
</svg>
