<?xml version="1.0" encoding="utf-8"?>
<!-- Generator: Adobe Illustrator 16.0.0, SVG Export Plug-In . SVG Version: 6.00 Build 0)  -->
<!DOCTYPE svg PUBLIC "-//W3C//DTD SVG 1.1//EN" "http://www.w3.org/Graphics/SVG/1.1/DTD/svg11.dtd">
<svg version="1.1" id="Layer_2" xmlns="http://www.w3.org/2000/svg" xmlns:xlink="http://www.w3.org/1999/xlink" x="0px" y="0px"
	 width="164.645px" height="291.061px" viewBox="0 0 164.645 291.061" enable-background="new 0 0 164.645 291.061"
	 xml:space="preserve">
<path fill="none" stroke="#000000" stroke-width="1.1339" stroke-miterlimit="10" d="M10.314,194.293
	c-21.827,27.776,18.173,68.776,24.173,95.776c0,0,41.167-31.5,15.5-136l-8.5-18.5c7.5,32.5-41.016,66.584-41.016,66.584"/>
<path fill="none" stroke="#000000" stroke-width="1.1339" stroke-miterlimit="10" d="M0.472,202.155l6.388-9.584
	c21.653-30.5,18.78-102,18.78-102c0-13,13.097-45,13.097-45c7.25-13.25,19.917-29.5,27-34.5c6.668-4.706,21.25-8.5,21.25-8.5
	c5.75-0.75,4.75-2.149,15.5-1.99c11.815,0.175,24,19.74,24,19.74s12.111,2.008,23.5,20.75c13.063,21.5,13.063,34.5,13.063,34.5"/>
<path fill="none" stroke="#000000" stroke-width="0.5669" stroke-miterlimit="10" d="M68.987,176.571"/>
<path fill="none" stroke="#000000" stroke-width="0.5669" stroke-miterlimit="10" d="M25.64,178.917c0,0-2.01,43.087,28.514,74.594"
	/>
<path fill="none" stroke="#000000" stroke-width="1.1339" stroke-miterlimit="10" d="M139.242,224.597
	c-4.529-5.484-12.755-35.526-12.755-35.526c-1-10.153-2.255-13.045,0.5-28c3.911-21.233-1-9.183,9.5-40.5
	c5.206-15.528,5.611-34.059,4.061-43c-1.123-6.474,0.686-27.305-4.561-33.5c0,0-15.5-28.5-39-16.5
	c-14.509,7.409-26.65-10.5-38.575,15c0,0-18.469,45.458-18.528,60c-0.045,11,2.101,16.547,1.604,33"/>
<path fill="none" stroke="#000000" stroke-width="1.1339" stroke-miterlimit="10" d="M155.081,50.266
	c13.901,15.897-35.052,138.659-9.094,203.245c0,0,18.104-81.403,15.811-102.939c-2.175-20.421,4.885-53.851,1.188-78.006"/>
<path fill="none" stroke="#000000" stroke-width="0.5669" stroke-miterlimit="10" d="M36.886,50.266
	c0,0-2.391,104.135-18.837,116.805"/>
<path fill="none" stroke="#000000" stroke-width="0.5669" stroke-miterlimit="10" d="M28.321,75.663c0,0,2.417,57.255-2.708,76.225"
	/>
<path fill="none" stroke="#000000" stroke-width="0.5669" stroke-miterlimit="10" d="M39.884,112.571c0,0-10.285,61.32-31.841,83.66
	"/>
<path fill="none" stroke="#000000" stroke-width="0.5669" stroke-miterlimit="10" d="M41.534,128.07
	c0,0-11.016,44.663-15.894,50.848"/>
<path fill="none" stroke="#000000" stroke-width="0.5669" stroke-miterlimit="10" d="M58.654,17.671
	c0,0-25.067,50.898-23.29,115.993"/>
<path fill="none" stroke="#000000" stroke-width="0.5669" stroke-miterlimit="10" d="M18.05,187.109
	c0,0,21.812,81.701,21.834,97.232"/>
<path fill="none" stroke="#000000" stroke-width="0.5669" stroke-miterlimit="10" d="M21.487,183.571
	c0,0,12.91,68.128,27.205,85.813"/>
<path fill="none" stroke="#000000" stroke-width="0.5669" stroke-miterlimit="10" d="M13.953,191.034c0,0,1.045,5.545,2.718,14.002
	c4.841,24.465,14.939,73.307,20.217,82.782"/>
<path fill="none" stroke="#000000" stroke-width="0.5669" stroke-miterlimit="10" d="M46.964,273.039
	c-23.001-8.455-34.313-54.289-29.395-63.484"/>
<path fill="none" stroke="#000000" stroke-width="0.5669" stroke-miterlimit="10" d="M25.884,152.571"/>
<path fill="none" stroke="#000000" stroke-width="0.5669" stroke-miterlimit="10" d="M10.218,193.796
	c0,0-12.23,15.758,17.034,77.974"/>
<path fill="none" stroke="#000000" stroke-width="0.5669" stroke-miterlimit="10" d="M14.948,196.231c0,0-4.456,15.736-2.298,22.52
	c5.399,16.976,14.09,47.414,18.194,50.635"/>
<path fill="none" stroke="#000000" stroke-width="0.5669" stroke-miterlimit="10" d="M51.826,261.365
	c0,0-3.134-67.567-14.939-98.865"/>
<path fill="none" stroke="#000000" stroke-width="0.5669" stroke-miterlimit="10" d="M49.987,266.326
	c0,0-19.886-93.012-20.545-92.154"/>
<path fill="none" stroke="#000000" stroke-width="0.5669" stroke-miterlimit="10" d="M58.239,224.597c0,0-6.413-37.488-24.81-56.12"
	/>
<path fill="none" stroke="#000000" stroke-width="0.5669" stroke-miterlimit="10" d="M41.534,149.676"/>
<path fill="none" stroke="#000000" stroke-width="0.5669" stroke-miterlimit="10" d="M44.447,273.039
	c2.257-28.229,4.245-105.969-2.913-123.363"/>
<path fill="none" stroke="#000000" stroke-width="0.5669" stroke-miterlimit="10" d="M31.7,171.071c0,0,12.575,46.31,25.681,64.654"
	/>
<path fill="none" stroke="#000000" stroke-width="0.5669" stroke-miterlimit="10" d="M42.174,145.087c0,0,3.66,38.483,14.649,45.947
	"/>
<path fill="none" stroke="#000000" stroke-width="0.5669" stroke-miterlimit="10" d="M39.715,156.058
	c0,0-8.406,80.314-4.439,100.968"/>
<path fill="none" stroke="#000000" stroke-width="0.5669" stroke-miterlimit="10" d="M162.146,69.306
	c0,0-9.918,136.738-21.788,163.501"/>
<path fill="none" stroke="#000000" stroke-width="0.5669" stroke-miterlimit="10" d="M161.553,164.183
	c-4.434,18.363-8.156,42.359-20.211,73.821"/>
<path fill="none" stroke="#000000" stroke-width="0.5669" stroke-miterlimit="10" d="M153.396,94.236
	c0,0-12.382,83.38-2.146,134.107"/>
<path fill="none" stroke="#000000" stroke-width="0.5669" stroke-miterlimit="10" d="M151.251,43.196c0,0-7.219,99.92-21.24,157.897
	"/>
<path fill="none" stroke="#000000" stroke-width="0.5669" stroke-miterlimit="10" d="M147.198,36.826"/>
<path fill="none" stroke="#000000" stroke-width="0.5669" stroke-miterlimit="10" d="M141.343,86.512
	c2.646-1.441,5.855-49.686,5.855-49.686"/>
<path fill="none" stroke="#000000" stroke-width="0.5669" stroke-miterlimit="10" d="M125.324,176.571
	c0,0,23.071-89.306,31.117-100.902"/>
<path fill="none" stroke="#000000" stroke-width="0.5669" stroke-miterlimit="10" d="M84.271,3.335c0,0-36.605,16.042-32.444,56.389
	"/>
<path fill="none" stroke="#000000" stroke-width="0.5669" stroke-miterlimit="10" d="M122.523,13.413
	c0,0-31.911-17.343-57.619,4.258"/>
<path fill="none" stroke="#000000" stroke-width="0.5669" stroke-miterlimit="10" d="M125.324,18.132
	c0,0-26.413-11.207-52.503,10.299"/>
<path fill="none" stroke="#000000" stroke-width="0.5669" stroke-miterlimit="10" d="M116.226,6.996c0,0-54.238-3.297-79.846,57.069
	"/>
<path fill="none" stroke="#000000" stroke-width="0.5669" stroke-miterlimit="10" d="M126.487,20.321c0,0-37.5-1.529-40,8.11"/>
<path fill="none" stroke="#000000" stroke-width="0.5669" stroke-miterlimit="10" d="M130.662,21.822c0,0,17.354,23.749,9.34,44.249
	"/>
<path fill="none" stroke="#000000" stroke-width="0.5669" stroke-miterlimit="10" d="M121.146,20.232c0,0,7.588,3.276,13.075,21.021
	"/>
<path fill="none" stroke="#000000" stroke-width="0.5669" stroke-miterlimit="10" d="M128.705,28.431
	c0,0-15.425-20.286-60.821-5.573"/>
<path fill="none" stroke="#000000" stroke-width="0.5669" stroke-miterlimit="10" d="M129.038,162.499
	c0,0,7.352,33.731,9.226,47.055"/>
<path fill="none" stroke="#000000" stroke-width="0.5669" stroke-miterlimit="10" d="M133.309,130.175c0,0,8.351,36.071,5.63,60.858
	c0,0,9.578,44.19,8.367,56.404"/>
<path fill="none" stroke="#000000" stroke-width="0.5669" stroke-miterlimit="10" d="M142.116,157.679c0,0,4.062,82.98,0.716,86.437
	"/>
<g>
	<path fill="none" stroke="#000000" stroke-width="0.5669" stroke-miterlimit="10" d="M75.654,84.988c0,0-3.417-4.5-7.417-4.25
		s-6.788,1.243-7.583,1.75c-1.638,1.045-5.417,2.25-6.5,2.5"/>
	<path fill="none" stroke="#000000" stroke-width="0.5669" stroke-miterlimit="10" d="M58.654,84.988c0,0,4.363,1.39,7.417,1.5
		c2.833,0.104,4.417-0.083,6.75-1.5"/>
	<path fill="none" stroke="#000000" stroke-width="0.5669" stroke-miterlimit="10" d="M63.99,81.335
		c-1.253,2.425-0.214,4.851-0.478,4.851"/>
	<path fill="none" stroke="#000000" stroke-width="0.5669" stroke-miterlimit="10" d="M70.529,81.083
		c0.833,1.774,0.05,5.103-0.387,5.103"/>
</g>
<g>
	<path fill="none" stroke="#000000" stroke-width="0.5669" stroke-miterlimit="10" d="M101.112,87.946
		c4.5-4.186,8.115-5.047,12-4.409"/>
	<path fill="none" stroke="#000000" stroke-width="0.5669" stroke-miterlimit="10" d="M113.112,83.536
		c1.78,0.099,5,2.11,11.125,4.409"/>
	<path fill="none" stroke="#000000" stroke-width="0.5669" stroke-miterlimit="10" d="M104.987,89.071c0,0,8.385,2.25,15.5,0"/>
	<path fill="none" stroke="#000000" stroke-width="0.5669" stroke-miterlimit="10" d="M108.482,83.634
		c-0.87,3.048-0.316,6.097,0,6.097"/>
	<path fill="none" stroke="#000000" stroke-width="0.5669" stroke-miterlimit="10" d="M116.226,84.553c0.887,2.589,0,5.178,0,5.178"
		/>
</g>
<path fill="none" stroke="#000000" stroke-width="0.5669" stroke-miterlimit="10" d="M73.185,115.662
	c0.005,0.224,1.252,0.195,2.279,1.193c2.211,2.145,5.96,5.402,12.144,0.573c0.702-0.547,1.341-1.409,2.979-0.824"/>
<g>
	<path fill="none" stroke="#000000" stroke-width="0.5669" stroke-miterlimit="10" d="M98.294,74.571
		c13.193-4,28.765-2.593,35.928,9.982"/>
	<path fill="none" stroke="#000000" stroke-width="0.5669" stroke-miterlimit="10" d="M98.294,79.501
		c12.943-6.157,20.381-1.853,35.928,5.052"/>
	
		<line fill="none" stroke="#000000" stroke-width="0.5669" stroke-miterlimit="10" x1="98.294" y1="74.571" x2="98.294" y2="79.501"/>
	
		<line fill="none" stroke="#000000" stroke-width="0.5669" stroke-miterlimit="10" x1="102.042" y1="77.956" x2="104.987" y2="73.06"/>
	
		<line fill="none" stroke="#000000" stroke-width="0.5669" stroke-miterlimit="10" x1="105.72" y1="76.961" x2="110.987" y2="72.581"/>
	
		<line fill="none" stroke="#000000" stroke-width="0.5669" stroke-miterlimit="10" x1="111.669" y1="76.54" x2="118.675" y2="73.384"/>
	
		<line fill="none" stroke="#000000" stroke-width="0.5669" stroke-miterlimit="10" x1="118.706" y1="78.057" x2="129.313" y2="78.566"/>
	
		<line fill="none" stroke="#000000" stroke-width="0.5669" stroke-miterlimit="10" x1="127.854" y1="81.705" x2="133.149" y2="82.858"/>
	
		<line fill="none" stroke="#000000" stroke-width="0.5669" stroke-miterlimit="10" x1="99.218" y1="79.078" x2="99.463" y2="74.233"/>
	
		<line fill="none" stroke="#000000" stroke-width="0.5669" stroke-miterlimit="10" x1="100.15" y1="78.678" x2="101.112" y2="73.809"/>
	
		<line fill="none" stroke="#000000" stroke-width="0.5669" stroke-miterlimit="10" x1="103.789" y1="77.413" x2="107.112" y2="73.06"/>
	
		<line fill="none" stroke="#000000" stroke-width="0.5669" stroke-miterlimit="10" x1="109.83" y1="76.542" x2="116.226" y2="73.06"/>
	
		<line fill="none" stroke="#000000" stroke-width="0.5669" stroke-miterlimit="10" x1="107.788" y1="76.655" x2="113.112" y2="72.632"/>
	
		<line fill="none" stroke="#000000" stroke-width="0.5669" stroke-miterlimit="10" x1="113.112" y1="76.749" x2="121.146" y2="74.062"/>
	
		<line fill="none" stroke="#000000" stroke-width="0.5669" stroke-miterlimit="10" x1="115.722" y1="77.228" x2="122.567" y2="74.571"/>
	
		<line fill="none" stroke="#000000" stroke-width="0.5669" stroke-miterlimit="10" x1="117.655" y1="77.735" x2="126.105" y2="76.28"/>
	
		<line fill="none" stroke="#000000" stroke-width="0.5669" stroke-miterlimit="10" x1="122.049" y1="79.252" x2="130.01" y2="79.197"/>
	
		<line fill="none" stroke="#000000" stroke-width="0.5669" stroke-miterlimit="10" x1="124.626" y1="80.302" x2="130.662" y2="79.837"/>
	
		<line fill="none" stroke="#000000" stroke-width="0.5669" stroke-miterlimit="10" x1="127.018" y1="81.335" x2="131.714" y2="80.982"/>
</g>
<g>
	<path fill="none" stroke="#000000" stroke-width="0.5669" stroke-miterlimit="10" d="M78.192,73.809
		c-4.167-3.558-21.369-9.743-31.229,6.918"/>
	<path fill="none" stroke="#000000" stroke-width="0.5669" stroke-miterlimit="10" d="M46.964,80.728
		c0-1.256,17.94-12.263,30.19-2.771"/>
	
		<line fill="none" stroke="#000000" stroke-width="0.5669" stroke-miterlimit="10" x1="78.192" y1="73.809" x2="77.154" y2="77.956"/>
	
		<line fill="none" stroke="#000000" stroke-width="0.5669" stroke-miterlimit="10" x1="74.482" y1="76.244" x2="72.821" y2="71.005"/>
	
		<line fill="none" stroke="#000000" stroke-width="0.5669" stroke-miterlimit="10" x1="70.896" y1="74.841" x2="63.356" y2="69.75"/>
	
		<line fill="none" stroke="#000000" stroke-width="0.5669" stroke-miterlimit="10" x1="64.612" y1="74.131" x2="56.01" y2="71.803"/>
	
		<line fill="none" stroke="#000000" stroke-width="0.5669" stroke-miterlimit="10" x1="59.304" y1="74.841" x2="51.271" y2="75.206"/>
	
		<line fill="none" stroke="#000000" stroke-width="0.5669" stroke-miterlimit="10" x1="68.177" y1="74.305" x2="62.06" y2="69.894"/>
	
		<line fill="none" stroke="#000000" stroke-width="0.5669" stroke-miterlimit="10" x1="66.552" y1="74.162" x2="58.654" y2="70.693"/>
	
		<line fill="none" stroke="#000000" stroke-width="0.5669" stroke-miterlimit="10" x1="73.258" y1="75.663" x2="71.498" y2="70.594"/>
	
		<line fill="none" stroke="#000000" stroke-width="0.5669" stroke-miterlimit="10" x1="71.862" y1="75.023" x2="68.934" y2="70.018"/>
	
		<line fill="none" stroke="#000000" stroke-width="0.5669" stroke-miterlimit="10" x1="71.862" y1="75.023" x2="65.737" y2="69.696"/>
	
		<line fill="none" stroke="#000000" stroke-width="0.5669" stroke-miterlimit="10" x1="76.438" y1="77.429" x2="77.673" y2="73.128"/>
	
		<line fill="none" stroke="#000000" stroke-width="0.5669" stroke-miterlimit="10" x1="75.852" y1="77.036" x2="76.707" y2="72.768"/>
	
		<line fill="none" stroke="#000000" stroke-width="0.5669" stroke-miterlimit="10" x1="75.228" y1="76.655" x2="75.119" y2="71.932"/>
	
		<line fill="none" stroke="#000000" stroke-width="0.5669" stroke-miterlimit="10" x1="61.556" y1="74.421" x2="54.339" y2="72.768"/>
	
		<line fill="none" stroke="#000000" stroke-width="0.5669" stroke-miterlimit="10" x1="54.339" y1="76.368" x2="49.562" y2="77.036"/>
</g>
<path fill="none" stroke="#000000" stroke-width="0.5669" stroke-miterlimit="10" d="M42.174,133.665
	c5.447,13.843,22.73,37.405,43.313,37.405c22.762-2.594,35-20.015,46.702-37.405"/>
<g>
	<path fill="none" stroke="#000000" stroke-width="0.5669" stroke-miterlimit="10" d="M60.595,136.532
		c12.227,11.039,26.587,14.145,40.214,0.874"/>
	<path fill="none" stroke="#000000" stroke-width="0.5669" stroke-miterlimit="10" d="M60.595,136.532
		c16.901,3.431,22.986,3.447,40.214,0.874"/>
	<path fill="none" stroke="#000000" stroke-width="0.5669" stroke-miterlimit="10" d="M100.809,137.406
		c-8.289-0.252-12.558-5.742-16.428-5.607c0,0,0.015,0.06-0.002,0.066c-3.571,1.608-3.571,1.608-7.124-0.622
		c-0.053-0.035,0.249,0.006,0.249,0.006c-2.728-0.583-7.66,5.562-16.909,5.283"/>
</g>
</svg>
